<svg width="126" height="126" viewBox="0 0 126 126" fill="none" xmlns="http://www.w3.org/2000/svg">
<path d="M78.75 105H47.25M21 72.451V43.051C21 37.1705 21 34.228 22.1444 31.9819C23.1511 30.0062 24.7562 28.4011 26.7319 27.3944C28.978 26.25 31.9205 26.25 37.801 26.25H88.201C94.0816 26.25 97.0177 26.25 99.2638 27.3944C101.24 28.4011 102.85 30.0062 103.857 31.9819C105 34.2258 105 37.1647 105 43.0338V72.4662C105 78.3353 105 81.2699 103.857 83.5138C102.85 85.4895 101.24 87.1 99.2638 88.1067C97.0199 89.25 94.0853 89.25 88.2162 89.25H37.7838C31.9147 89.25 28.9758 89.25 26.7319 88.1067C24.7562 87.1 23.1511 85.4895 22.1444 83.5138C21 81.2677 21 78.3316 21 72.451ZM76.125 57.75L52.5 42V73.5L76.125 57.75Z" stroke="#2600FF" stroke-width="2" stroke-linecap="round" stroke-linejoin="round"/>
</svg>
